 <svg  version="1.0" xmlns="http://www.w3.org/2000/svg"  width="200.000000pt" height="100.000000pt" viewBox="0 0 200.000000 100.000000"  preserveAspectRatio="xMidYMid meet">  <g transform="translate(0.000000,100.000000) scale(0.050000,-0.050000)" fill="#ffffff" stroke="none"> <path d="M230 1198 c-260 -151 -180 -498 115 -498 85 0 221 65 224 106 3 46 -106 83 -145 48 -123 -112 -293 79 -175 197 57 57 104 62 168 17 50 -35 144 -8 142 40 -2 74 -243 140 -329 90z"/> <path d="M750 1198 c-265 -154 -185 -498 117 -498 254 0 359 272 173 450 -66 63 -220 89 -290 48z m197 -139 c104 -82 51 -239 -79 -239 -154 0 -202 203 -62 260 66 26 84 24 141 -21z"/> <path d="M1194 1015 c12 -258 37 -302 175 -311 57 -4 107 4 126 20 25 21 33 21 40 1 5 -14 35 -25 67 -25 l58 0 0 261 0 262 -65 -7 -65 -6 7 -136 c11 -216 -60 -316 -172 -243 -41 27 -45 45 -45 209 l0 180 -68 0 -68 0 10 -205z"/> <path d="M1904 1189 c-24 -18 -44 -22 -44 -10 0 11 -31 21 -70 21 l-70 0 0 -250 0 -250 70 0 70 0 0 165 c1 184 8 204 85 233 40 15 55 35 55 72 0 57 -32 64 -96 19z"/> <path d="M2140 1206 c-173 -64 -137 -238 63 -302 67 -21 107 -45 107 -64 0 -44 -106 -50 -152 -8 -44 40 -138 12 -138 -40 0 -89 287 -132 379 -57 100 81 45 220 -104 264 -97 29 -140 57 -124 83 16 26 97 22 124 -5 25 -25 145 12 145 46 0 60 -206 117 -300 83z"/> <path d="M2601 1176 c-220 -149 -115 -476 153 -476 166 0 256 69 171 131 -28 21 -45 20 -92 -5 -84 -43 -213 -3 -213 66 0 22 42 28 193 28 l192 0 -11 83 c-24 183 -240 278 -393 173z m235 -107 c73 -51 51 -69 -86 -69 -139 0 -149 6 -97 63 41 45 123 48 183 6z"/> <path d="M3233 1190 c-34 -34 -62 -40 -43 -10 7 12 -16 20 -59 20 l-71 0 0 -250 0 -250 73 0 72 0 -12 139 c-15 165 7 235 76 253 28 7 51 24 51 39 0 14 5 40 12 57 16 42 -58 43 -99 2z"/> <path d="M3477 1190 c-165 -90 -182 -357 -29 -457 60 -39 232 -44 271 -8 21 20 28 20 35 0 5 -14 36 -25 68 -25 l58 0 0 260 0 260 -60 0 c-40 0 -60 -10 -60 -30 0 -16 -8 -30 -18 -30 -9 0 -28 14 -42 30 -31 38 -153 38 -223 0z m204 -120 c125 -65 80 -234 -66 -246 -136 -12 -194 120 -97 218 68 67 82 69 163 28z"/> </g> </svg> 