 <svg  version="1.0" xmlns="http://www.w3.org/2000/svg"  width="1200.000000pt" height="630.000000pt" viewBox="0 0 1200.000000 630.000000"  preserveAspectRatio="xMidYMid meet">  <g transform="translate(0.000000,630.000000) scale(0.050000,-0.050000)" fill="#ffffff" stroke="none"> <path d="M1316 11259 c-400 -67 -699 -433 -694 -847 3 -273 25 -301 189 -245 87 30 91 29 142 -18 53 -49 127 -66 127 -30 0 10 -12 26 -27 35 -15 9 -43 41 -62 71 -67 104 49 162 127 63 22 -28 52 -48 66 -43 14 5 59 -20 100 -57 l73 -66 242 8 242 8 -12 -74 c-7 -41 -48 -126 -91 -189 -44 -63 -69 -115 -56 -115 20 0 51 22 216 160 36 30 78 40 161 40 111 0 114 1 150 75 252 520 -60 1134 -623 1226 -129 21 -137 21 -270 -2z m385 -180 c78 -41 208 -371 178 -449 -32 -80 -18 -101 29 -43 77 94 232 11 232 -124 0 -192 -187 -278 -531 -245 -194 18 -245 34 -429 133 -49 27 -104 49 -122 49 -100 0 -293 200 -269 277 28 88 271 121 271 36 0 -87 194 -199 391 -226 l93 -13 -42 82 c-38 74 -51 83 -157 106 -235 50 -278 97 -236 256 41 155 58 168 200 158 67 -5 144 -3 171 5 76 22 178 22 221 -2z"/> <path d="M1566 11038 c29 -17 31 -27 13 -50 -26 -31 26 -40 89 -16 77 30 20 89 -85 87 -47 0 -49 -3 -17 -21z"/> <path d="M1180 10923 c0 -53 64 -106 100 -82 17 10 59 19 95 19 44 0 65 10 65 30 0 23 -24 30 -99 30 -54 0 -104 9 -111 20 -20 33 -50 23 -50 -17z"/> <path d="M3220 10920 l0 -330 260 0 260 0 0 75 0 75 -170 0 -170 0 0 60 c0 59 2 60 100 60 l100 0 0 70 0 70 -100 0 c-94 0 -100 3 -100 52 l0 52 165 -7 165 -7 0 76 0 77 -255 3 -255 4 0 -330z"/> <path d="M3880 10917 l0 -334 155 10 c302 18 364 54 404 231 60 272 -48 401 -350 416 l-209 10 0 -333z m345 121 c66 -80 45 -231 -39 -275 -111 -58 -126 -39 -126 160 l0 182 65 -13 c36 -6 81 -31 100 -54z"/> <path d="M4928 11242 c-4 -5 -8 -156 -8 -336 l0 -328 95 6 95 6 0 130 0 130 100 0 100 0 0 -130 0 -130 95 -6 96 -6 -6 334 -5 334 -90 0 -90 0 0 -118 0 -118 -100 0 -100 0 0 117 0 118 -87 2 c-47 2 -90 -1 -95 -5z"/> <path d="M6288 11242 c-4 -5 -8 -44 -8 -87 l0 -79 95 7 95 7 6 -255 5 -255 90 0 89 0 0 260 0 259 91 -12 92 -13 -7 84 -6 85 -267 3 c-146 2 -270 0 -275 -4z"/> <path d="M6941 11231 c-13 -16 -21 -54 -17 -85 11 -102 176 -82 176 22 0 84 -106 126 -159 63z"/> <path d="M2520 10912 l0 -332 90 0 90 0 0 120 c0 104 5 120 37 120 27 0 53 -36 91 -120 l54 -120 99 0 c117 0 117 0 38 146 l-62 114 57 48 c48 41 56 64 56 150 0 166 -39 190 -321 199 l-229 6 0 -331z m359 159 c42 -51 7 -106 -75 -116 -96 -12 -104 -6 -104 76 0 77 125 105 179 40z"/> <path d="M5840 11213 c0 -14 -49 -159 -110 -322 -60 -163 -110 -299 -110 -304 0 -4 45 -7 101 -7 95 0 101 3 112 60 12 58 16 60 118 60 101 0 106 -3 119 -60 12 -57 19 -60 112 -60 115 0 114 -3 41 184 -31 81 -83 220 -115 311 l-57 165 -106 0 c-74 0 -105 -8 -105 -27z m152 -288 c13 -82 11 -85 -39 -85 -60 0 -63 13 -30 123 28 92 50 80 69 -38z"/> <path d="M3670 10392 c-237 -104 -338 -482 -203 -758 123 -251 416 -313 611 -130 l68 63 -46 37 c-44 36 -46 35 -97 -16 -209 -209 -472 -30 -473 322 0 332 255 527 448 342 64 -62 85 -64 129 -15 94 104 -265 231 -437 155z"/> <path d="M8070 10403 c-5 -5 7 -32 27 -61 20 -28 102 -168 182 -309 l146 -257 -13 -178 -13 -178 60 0 61 0 0 192 0 192 170 291 c94 160 170 299 170 308 0 12 -115 3 -133 -11 -14 -11 -227 -414 -227 -429 0 -76 -54 -11 -163 195 -123 233 -205 308 -267 245z"/> <path d="M2734 10195 c-38 -113 -115 -333 -171 -490 l-101 -285 66 0 c63 0 67 4 99 120 l33 120 209 0 209 0 34 -120 c32 -117 35 -120 103 -120 58 0 67 6 55 35 -19 47 -191 529 -271 760 -63 183 -65 185 -130 185 -65 0 -66 -1 -135 -205z m213 -155 c39 -116 76 -226 84 -245 12 -32 -3 -35 -161 -35 -130 0 -171 6 -164 25 6 14 44 127 85 251 41 124 77 223 80 220 3 -4 38 -101 76 -216z"/> <path d="M4590 10375 c-6 -14 -77 -218 -159 -455 -81 -236 -154 -446 -162 -465 -11 -29 -2 -35 49 -35 34 0 62 2 63 5 0 3 17 55 37 115 l36 110 208 6 208 5 35 -120 c34 -117 38 -121 104 -121 l68 0 -55 145 c-31 80 -109 300 -174 490 l-118 345 -65 0 c-37 0 -70 -11 -75 -25z m157 -363 c40 -125 73 -233 73 -240 0 -6 -73 -12 -161 -12 -120 0 -160 7 -155 25 27 106 148 455 158 455 7 0 45 -102 85 -228z"/> <path d="M5260 9910 l0 -490 196 0 c360 0 503 124 520 454 20 378 -123 525 -511 526 l-205 0 0 -490z m430 350 c121 -59 177 -168 177 -349 -1 -263 -96 -371 -341 -387 l-146 -9 0 392 0 393 114 0 c72 0 143 -14 196 -40z"/> <path d="M6200 9910 l0 -490 310 0 310 0 0 49 0 50 -252 5 -253 6 -1 180 -2 180 144 -7 144 -7 0 64 0 64 -144 -7 -145 -7 2 150 1 150 243 6 243 5 0 50 0 49 -300 0 -300 0 0 -490z"/> <path d="M7020 9910 l0 -490 63 0 63 0 -11 370 c-11 382 -2 422 56 248 18 -56 77 -211 131 -343 54 -133 98 -255 98 -270 0 -102 317 585 319 691 1 15 11 20 23 13 15 -9 17 -118 7 -361 l-14 -348 62 0 63 0 0 490 0 490 -65 0 -65 -1 -133 -344 c-73 -190 -139 -363 -147 -385 -17 -48 3 -90 -182 385 l-134 345 -67 0 -67 0 0 -490z"/> <path d="M1500 10001 c0 -32 105 -45 133 -16 23 22 14 27 -53 30 -44 1 -80 -5 -80 -14z"/> <path d="M1380 9787 c0 -81 -3 -87 -39 -68 -127 69 -255 -166 -144 -266 42 -39 125 -43 159 -9 19 19 24 19 24 0 0 -13 18 -24 40 -24 38 0 40 13 40 218 0 201 -3 218 -40 228 -36 9 -40 0 -40 -79z m-24 -131 c28 -28 31 -114 6 -153 -34 -53 -111 -19 -118 53 -10 101 54 158 112 100z"/> <path d="M1520 9631 c0 -127 8 -211 20 -211 11 0 20 53 20 118 0 224 146 240 156 17 7 -173 44 -177 44 -5 0 153 -55 217 -151 173 -46 -21 -49 -19 -49 36 0 32 -9 64 -20 71 -13 8 -20 -63 -20 -199z"/> <path d="M2110 9770 c-9 -22 -27 -47 -39 -55 -14 -10 -13 -14 4 -15 17 0 25 -37 25 -119 0 -121 30 -181 91 -181 43 0 35 34 -11 46 -70 18 -59 254 11 254 28 0 46 8 40 18 -6 10 -28 14 -49 8 -29 -7 -41 2 -47 37 -8 45 -9 45 -25 7z"/> <path d="M754 9706 c-21 -22 -34 -25 -34 -10 0 13 -13 24 -30 24 -24 0 -30 -30 -30 -150 0 -137 4 -150 40 -150 35 0 40 13 40 110 0 101 5 113 52 131 28 10 48 30 43 43 -12 38 -44 39 -81 2z"/> <path d="M909 9694 c-66 -56 -76 -172 -20 -233 46 -51 211 -60 211 -11 0 22 -22 30 -80 30 -44 0 -80 4 -80 8 0 5 -5 23 -12 40 -10 27 5 32 90 32 95 0 102 3 102 50 0 115 -120 163 -211 84z m131 -22 c0 -5 5 -23 12 -40 10 -26 -2 -32 -60 -32 -75 0 -88 16 -48 56 22 22 96 34 96 16z"/> <path d="M1865 9727 c-46 -19 -26 -37 40 -37 52 0 66 -9 71 -45 6 -38 -2 -45 -52 -45 -107 0 -158 -103 -84 -170 34 -30 49 -33 92 -13 28 13 59 18 69 12 11 -6 19 43 19 117 0 161 -52 222 -155 181z m115 -195 c0 -94 -123 -128 -136 -37 -5 32 7 51 40 64 74 30 96 24 96 -27z"/> </g> </svg> 